<?xml version="1.0" encoding="UTF-8"?><svg id="Capa_1" xmlns="http://www.w3.org/2000/svg" viewBox="0 0 1024 768"><defs><style>.cls-1{opacity:.07;}.cls-1,.cls-2,.cls-3{fill:#cf393e;}.cls-2{font-family:Antonio-Bold, Antonio;font-size:311.11px;}</style></defs><g><path class="cls-1" d="M847.03,200.15v222.31l-33.01,33.02v172.04l-29.22,29.22H473.17l-29.61-29.6H245.86l-40.11-40.11v-115.21l30.52-30.52v-115.91l-59.53-59.53v-96.64c14.11-14.1,22.02-22.01,36.12-36.12h222.43l35.91,35.91h151.94l12.77-12.77h167.18l43.93,43.93Z"/><g><g><polygon class="cls-3" points="376.89 643.31 371.1 637.52 379.05 637.52 384.84 643.31 376.89 643.31"/><polygon class="cls-3" points="396.96 643.31 389.01 643.31 383.22 637.52 391.17 637.52 396.96 643.31"/><polygon class="cls-3" points="403.29 637.52 409.08 643.31 401.13 643.31 395.34 637.52 403.29 637.52"/><polygon class="cls-3" points="415.41 637.52 421.2 643.31 413.25 643.31 407.46 637.52 415.41 637.52"/><polygon class="cls-3" points="427.53 637.52 433.32 643.31 425.37 643.31 419.58 637.52 427.53 637.52"/><polygon class="cls-3" points="439.65 637.52 445.44 643.31 437.49 643.31 431.7 637.52 439.65 637.52"/></g><polygon class="cls-3" points="316.7 637.52 362.03 637.52 367.82 643.31 322.49 643.31 316.7 637.52"/></g><g><g><polygon class="cls-3" points="822.86 515.25 828.65 509.47 828.65 517.41 822.86 523.2 822.86 515.25"/><polygon class="cls-3" points="822.86 535.32 822.86 527.37 828.65 521.59 828.65 529.53 822.86 535.32"/><polygon class="cls-3" points="828.65 541.65 822.86 547.44 822.86 539.49 828.65 533.71 828.65 541.65"/><polygon class="cls-3" points="828.65 553.77 822.86 559.56 822.86 551.61 828.65 545.83 828.65 553.77"/><polygon class="cls-3" points="828.65 565.89 822.86 571.68 822.86 563.73 828.65 557.95 828.65 565.89"/><polygon class="cls-3" points="828.65 578.01 822.86 583.8 822.86 575.85 828.65 570.07 828.65 578.01"/></g><polygon class="cls-3" points="828.65 455.06 828.65 500.4 822.86 506.18 822.86 460.85 828.65 455.06"/></g><g><g><polygon class="cls-3" points="838.38 258.42 832.59 252.63 832.59 260.57 838.38 266.36 838.38 258.42"/><polygon class="cls-3" points="838.38 278.48 838.38 270.54 832.59 264.75 832.59 272.69 838.38 278.48"/><polygon class="cls-3" points="832.59 284.81 838.38 290.6 838.38 282.66 832.59 276.87 832.59 284.81"/><polygon class="cls-3" points="832.59 296.93 838.38 302.72 838.38 294.78 832.59 288.99 832.59 296.93"/><polygon class="cls-3" points="832.59 309.05 838.38 314.84 838.38 306.9 832.59 301.11 832.59 309.05"/><polygon class="cls-3" points="832.59 321.17 838.38 326.96 838.38 319.02 832.59 313.23 832.59 321.17"/></g><polygon class="cls-3" points="832.59 198.23 832.59 243.56 838.38 249.35 838.38 204.01 832.59 198.23"/></g><g><polygon class="cls-3" points="220.97 393.27 226.76 399.06 226.76 391.11 220.97 385.32 220.97 393.27"/><polygon class="cls-3" points="220.97 373.2 220.97 381.15 226.76 386.94 226.76 378.99 220.97 373.2"/><polygon class="cls-3" points="226.76 366.87 220.97 361.08 220.97 369.03 226.76 374.82 226.76 366.87"/><polygon class="cls-3" points="226.76 354.75 220.97 348.96 220.97 356.91 226.76 362.7 226.76 354.75"/><polygon class="cls-3" points="226.76 342.63 220.97 336.84 220.97 344.79 226.76 350.58 226.76 342.63"/><polygon class="cls-3" points="226.76 330.51 220.97 324.72 220.97 332.67 226.76 338.46 226.76 330.51"/></g><g><polygon class="cls-3" points="618.67 158.16 624.46 152.37 616.51 152.37 610.72 158.16 618.67 158.16"/><polygon class="cls-3" points="598.6 158.16 606.55 158.16 612.34 152.37 604.39 152.37 598.6 158.16"/><polygon class="cls-3" points="592.27 152.37 586.48 158.16 594.43 158.16 600.22 152.37 592.27 152.37"/><polygon class="cls-3" points="580.15 152.37 574.36 158.16 582.31 158.16 588.1 152.37 580.15 152.37"/><polygon class="cls-3" points="568.03 152.37 562.24 158.16 570.19 158.16 575.98 152.37 568.03 152.37"/><polygon class="cls-3" points="555.91 152.37 550.12 158.16 558.07 158.16 563.86 152.37 555.91 152.37"/></g><path class="cls-3" d="M785.61,658.7H472.36l-29.61-29.6H245.04l-41.27-41.27v-116.84l30.52-30.52v-114.27l-59.53-59.53v-98.27l.58-.58c14.11-14.1,22.02-22.01,36.12-36.12l.58-.58h224.07l35.91,35.91h150.31l12.77-12.77h168.82l45.08,45.09v223.94l-33.01,33.02v172.04l-30.37,30.37Zm-311.62-3.95h309.99l28.06-28.06v-172.04l33.01-33.02V200.97l-42.77-42.78h-165.55l-12.77,12.77h-153.58l-35.91-35.91H213.68c-13.55,13.56-21.41,21.41-34.97,34.97v95l59.53,59.53v117.54l-30.52,30.52v113.57l38.96,38.96h197.71l29.61,29.6Z"/><polygon class="cls-3" points="814.01 587.95 814.01 627.51 784.8 656.73 473.17 656.73 443.57 627.13 390.87 627.13 390.87 627.1 445.39 572.57 667.38 572.57 681.58 558.38 784.44 558.38 814.01 587.95"/><g><polygon class="cls-3" points="195.08 255.64 191.13 255.64 191.13 176.7 210.56 157.27 213.35 160.06 195.08 178.33 195.08 255.64"/><path class="cls-3" d="M208.65,155.68c1.74-1.74,4.56-1.74,6.3,0,1.74,1.74,1.74,4.56,0,6.3-1.74,1.74-4.56,1.74-6.3,0-1.74-1.74-1.74-4.56,0-6.3Z"/><path class="cls-3" d="M188.66,255.41c0,2.46,1.99,4.45,4.45,4.45s4.45-1.99,4.45-4.45-1.99-4.45-4.45-4.45-4.45,1.99-4.45,4.45Z"/></g><g><circle class="cls-3" cx="252.22" cy="615.19" r="4.09" transform="translate(-404.46 719.33) rotate(-76.72)"/><circle class="cls-3" cx="264.65" cy="615.19" r="4.09" transform="translate(-394.89 731.42) rotate(-76.72)"/><circle class="cls-3" cx="277.08" cy="615.19" r="4.09" transform="translate(-353.85 376.11) rotate(-45)"/><circle class="cls-3" cx="289.51" cy="615.19" r="4.09" transform="translate(-350.21 384.9) rotate(-45)"/><circle class="cls-3" cx="301.94" cy="615.19" r="4.09" transform="translate(-346.57 393.69) rotate(-45)"/></g><g><circle class="cls-3" cx="374.41" cy="149.04" r="4.09" transform="translate(4.28 308.4) rotate(-45)"/><circle class="cls-3" cx="386.84" cy="149.04" r="4.09" transform="translate(7.92 317.19) rotate(-45)"/><circle class="cls-3" cx="399.27" cy="149.04" r="4.09" transform="translate(11.56 325.98) rotate(-45)"/><circle class="cls-3" cx="411.7" cy="149.04" r="4.09" transform="translate(-25.69 168.9) rotate(-22.5)"/><circle class="cls-3" cx="424.13" cy="149.04" r="4.09" transform="translate(-24.75 173.65) rotate(-22.5)"/></g><g><polygon class="cls-3" points="195.34 554.15 191.4 554.15 191.4 462.29 202.4 451.29 205.19 454.08 195.34 463.93 195.34 554.15"/><path class="cls-3" d="M200.49,449.69c1.74-1.74,4.56-1.74,6.3,0s1.74,4.56,0,6.3c-1.74,1.74-4.56,1.74-6.3,0-1.74-1.74-1.74-4.56,0-6.3Z"/><path class="cls-3" d="M188.92,553.92c0,2.46,1.99,4.45,4.45,4.45s4.45-1.99,4.45-4.45-1.99-4.45-4.45-4.45-4.45,1.99-4.45,4.45Z"/></g></g><text class="cls-2" transform="translate(387.06 480.65)"><tspan x="0" y="0">¿?</tspan></text></svg>