<?xml version="1.0" encoding="UTF-8"?><svg id="Capa_1" xmlns="http://www.w3.org/2000/svg" viewBox="0 0 1920 1080"><defs><style>.cls-1{fill:none;stroke:#cf393e;stroke-miterlimit:10;stroke-width:2px;}</style></defs><path class="cls-1" d="M93.49,58.5c103.06,2.03,195.13,55.89,299.36,47.93,132.45-10.1,258.66-71.98,392.08-71.93,106.94,.04,202.26,60.54,306.58,75.72,46.92,6.83,92.18,1.93,134.82-19.29,36.95-18.39,69.75-44.48,109.3-57.6,64.78-21.48,141.61-6.77,207.79,0,95.44,9.77,191,23.88,287.06,25.16-.29,51.9-1.77,103.78-3.09,155.67-1.12,44.44,2.07,90.73-3.4,134.85-8.19,66.08-50.45,122.63-50.51,190.48-.08,80.93,48.08,152.86,55.95,232.58,3.46,34.98-4.52,64.03-26.16,91.59-23.62,30.08-42.26,52.95-44.79,92.83-64.1,2.1-113.33,30.07-170.57,54.79-61.77,26.67-121.6,25.9-186.84,12.81-83.37-16.72-164.52-43.19-246.85-64.16-57.09-14.54-125.06-35.7-184.25-21.27-34.58,8.44-57.08,31.94-82.29,55.18-29.25,26.97-61.38,40.72-101.6,40.56-102.06-.39-186.73-69.25-286.78-79.55-139.21-14.34-267.72,75.2-405.83,79.63,2.22-81.01,39.3-157.26,33.23-238.84-6.47-86.87-41.98-168.76-45.23-256.16-2.71-72.66-30.73-140.26-36.85-212.3-7.93-93.27,45.2-176.59,48.84-268.7Z"/><path class="cls-1" d="M95.79,998.55c72.07-2.71,140.28-25.67,208.8-46.21,60.35-18.08,124.48-37.49,188.18-31.06,100.7,10.18,190.29,74.66,292.65,74.12,38.93-.2,73.23-15.37,104.3-37.67,28.08-20.16,54.44-40.93,88.77-49.29,58.1-14.16,123.52,5.41,179.99,18.85,79.44,18.91,157.85,42.47,238,58.3,68.11,13.45,128.32,13.71,193.56-11.14,57.9-22.05,110.17-47.21,173.28-50.27"/><path class="cls-1" d="M101.35,964.94c130.16-4.55,250.17-82.91,381.38-71.93,101.4,8.48,195.44,61.4,297.95,61.11,80.1-.23,141.33-54.12,217.68-67.81,58.08-10.42,119.1,3.93,175.93,15.7,74.98,15.53,149.17,35.1,224.69,47.98,67.6,11.53,128.84,10.27,194.68-9.16,60.57-17.87,117.58-38.82,181.44-41.43"/><path class="cls-1" d="M108.71,932.61c123.04-3.36,234.4-71.27,358.48-65.21,104.13,5.09,203.72,44.4,308.37,44.14,85.21-.21,163.78-34.42,247.73-42.75,127.69-12.67,257.08,31.07,382.79,47.12,63.86,8.15,125.22,6.15,188.34-6.34,65.52-12.97,129.07-29.41,196.28-30.8"/><path class="cls-1" d="M116.4,900.53c115.77-2.15,220.18-60.16,336.93-58.02,105.85,1.94,209.71,25.92,315.74,26.41,94.13,.43,187-14.45,280.94-16.97,121.3-3.25,239.63,19.86,360.06,29.51,134.06,10.74,263.52-22.66,396.96-22.55"/><path class="cls-1" d="M122.97,867.64c56.21-.71,108.41-14.84,162.14-29.83,53.37-14.89,104.64-21.91,160.06-21.96,106.53-.09,212.97,9.62,319.52,11.06,102.46,1.38,205.02,2.96,307.47,5.35,112.72,2.63,224.91,9.86,337.56,13.94,137.4,4.98,273.98-11.72,411.23-9.75"/><path class="cls-1" d="M126.94,832.89c53.94-.76,103.91-13.36,155.57-27.5,51.87-14.2,101.69-19.94,155.41-20.29,107.71-.72,215.65,.4,323.35,1.58,108.69,1.19,217.02,14.57,325.56,19.44,107.65,4.83,216.37,3.05,324.15,3.54,139.45,.63,278.92-3.14,418.36-1.63"/><path class="cls-1" d="M126.69,795.16c53.04-1.79,102.91-13.01,154.11-25.92,51.26-12.92,101.28-19.35,154.18-19.05,108.9,.6,217.81-2.85,326.71-1.34,108.9,1.51,217.02,16.19,325.75,20.87,107.1,4.62,215.12,2,322.33,2.25,139.91,.33,279.82-.6,419.72-.37"/><path class="cls-1" d="M121.21,753.92c102.53-3.87,201.16-32.84,304.11-32.8,114.19,.04,228.13-10.79,342.35-9.09,103.46,1.54,206.5,11.66,309.87,15.27,108.49,3.79,217.44,5.2,326,7.13,139.68,2.49,279.46-1.49,419.15-1.21"/><path class="cls-1" d="M112.24,710.35c99.48-1.92,198.5-11.48,298.01-13.29,122.63-2.22,244.39-22.03,367.13-21.41,95.06,.48,190.04,4.95,285.08,6.52,110.49,1.83,220.19,9.62,330.55,14.29,139.32,5.9,279.18-2.15,418.57-2.14"/><path class="cls-1" d="M101.78,665.79c97,.89,194.09,13.27,291.1,9.35,132.44-5.35,263.13-34.35,395.81-35.68,85.5-.86,170.99-2.79,256.49-3.57,112.66-1.03,223.33,14.6,335.47,22.42,138.83,9.68,278.97-2.7,417.98-3.11"/><path class="cls-1" d="M91.84,621.58c95.94,3.34,187.97,36.61,284.47,30.91,141.8-8.38,280.93-46.42,423.15-49.28,76.63-1.54,152.67-10.35,229.21-13.2,114.49-4.26,226.76,19.48,340.27,30.22,138.28,13.08,278.78-3.29,417.39-4.07"/><path class="cls-1" d="M84.41,579.03c96.46,4.22,181.32,53.92,279.22,47.18,148.97-10.25,294.37-55.95,443.89-59.58,70.21-1.7,138.45-16.45,208.35-20.56,115.89-6.81,229.95,23.49,344.43,36.37,137.81,15.51,278.56-4.06,416.81-4.96"/><path class="cls-1" d="M81.5,539.5c48.62,1.09,89.72,13.94,134.32,31.75,46.26,18.48,92.3,25.42,142.13,22.2,152.2-9.84,300-61.13,452.81-63.95,67.76-1.25,131.83-19.69,199.03-23.85,117.29-7.25,231.85,25.77,347.46,39.57,137.49,16.41,278.27-5.13,416.25-5.72"/><path class="cls-1" d="M79.04,502.48c49.88,1.49,94.4,14.68,141.22,30.54,48.41,16.39,95.85,24.67,147.1,21.02,148-10.54,293.37-54.47,441.95-57.18,70.43-1.28,136.62-21.84,206.43-26.25,117.65-7.42,234.19,24.93,350.33,38.24,135.75,15.56,274.5-4.12,410.7-4.99"/><path class="cls-1" d="M72.91,466.23c107.14,2.84,205.56,52.64,313.62,47.01,138.81-7.24,275.9-38.28,414.96-41.43,41.27-.93,80.82-4.72,121.22-13.42,36.42-7.84,72.52-16.09,109.81-18.51,119.58-7.76,239.41,23.41,357.81,35.25,130.8,13.08,263.72-3.23,394.85-3.96"/><path class="cls-1" d="M64.73,430.42c118.96,2.1,232.5,43.9,352,40.92,127.69-3.19,254.76-18.48,382.51-20.49,85.32-1.35,164.49-31.77,248.85-38.84,122.76-10.29,247.88,19.83,369.78,30.32,125.65,10.81,252.67-1.83,378.56-2.2"/><path class="cls-1" d="M56.14,394.69c131.56,1.13,260.29,33.17,392.09,34.63,116.03,1.29,232.35,2.53,348.38,1.46,91.76-.85,177.17-37.03,267.73-46.08,126.28-12.62,256.65,15.99,382.43,25.06,120.13,8.66,241.19-.38,361.5-.37"/><path class="cls-1" d="M48.75,358.71c76.32,.24,152.14,9.29,227.96,17.05,65.22,6.68,129.92,9.29,195.34,12.01,105.42,4.38,210.7,19.71,316.23,20.45,101.32,.71,195.88-42.82,295.78-52.9,57.58-5.81,116.36-.35,173.85,4.07,72.51,5.58,144.89,13.11,217.51,17.31,114.05,6.59,228.81,.75,342.99,1"/><path class="cls-1" d="M44.2,322.12c79.92,.34,159.58,8.15,239.16,14.66,69.56,5.69,138.93,7.12,208.53,10.83,98.81,5.27,195.82,31.9,294.97,32.2,104.95,.31,202.94-45.8,306.39-56.85,57.45-6.14,116.28-.76,173.72,3.09,73.52,4.92,146.93,11.47,220.52,15.38,112.08,5.95,224.89,2.11,337.1,2.3"/><path class="cls-1" d="M44.32,284.71c80.07,.42,159.9,8.14,239.65,14.56,69.7,5.61,139.24,7.06,208.97,10.8,98.23,5.26,194.84,32.59,293.43,32.19,105.08-.42,205.06-43.28,308.82-54.8,57.31-6.36,116-.44,173.38,2.78,72.71,4.07,145.37,9.02,218.11,12.55,112.66,5.47,226.14,4.18,338.93,3.59"/><path class="cls-1" d="M50.17,247.05c76.62,.31,152.81,8.93,228.99,16.33,67.42,6.54,134.4,9.01,201.99,11.98,101.52,4.46,203.36,20,305.02,19.52,103.63-.49,205.83-29.69,308.79-38.76,56.07-4.94,112.81-.8,169.02,.15,67.98,1.14,135.97,1.97,203.95,3.3,119.3,2.33,238.97,7.44,358.28,6.59"/><path class="cls-1" d="M59.82,209.32c133.68,1.12,265,31.02,398.85,32.47,108.58,1.18,217.3-.27,325.88-.56,103.65-.28,207.31-9.97,310.89-13.52,115.52-3.96,230.97-10.25,346.49-14.14,128.76-4.33,256.6,10.65,385.22,10.58"/><path class="cls-1" d="M71.14,171.56c123.75,1.93,243.5,41.24,367.66,37.3,116.68-3.7,232.53-24.4,349.37-24.18,101.01,.19,201.6,12.43,302.49,15.89,107.17,3.67,208.69-21.88,314.4-33.96,140.5-16.05,282.5,13.54,423.2,14.77"/><path class="cls-1" d="M81.95,133.81c112.16,2.53,219.12,49.15,331.82,42.22,124.66-7.67,247.61-47.85,372.74-46.93,102.65,.75,202.82,33.83,304.58,43.88,101.51,10.03,186.97-34.27,284-53.67,65.69-13.13,133.44-5.35,199.58,.52,84.79,7.53,169.44,17.62,254.63,19.02"/><path class="cls-1" d="M90.12,96.11c104.74,2.64,201.83,54.37,307.38,46.04,69.38-5.48,137.63-22.21,205.54-36.61,59.48-12.61,121.94-28.31,183.13-27.69,104.28,1.06,202.25,50.9,304.59,65.49,47.67,6.79,91.36,1.24,136-16.78,41.27-16.66,79.69-40.11,122.76-52.28,65.73-18.57,138.33-6.36,205.09,.2,91.68,9.01,183.29,21.32,275.51,23.08"/><path class="cls-1" d="M1781.86,56.85c-4.48,96.88,13.97,195.64,2.41,292.12-8.04,67.16-55.57,121.75-54.94,191.05,.74,80.79,47.62,152.4,55.54,232.02,3.46,34.71-5.53,64.29-25.09,92.76-21.41,31.18-39.22,56.39-42.43,95.39"/><path class="cls-1" d="M1727.04,52.66c-3.36,98.29,36.04,195.16,24.08,293.45-8.51,69.91-66,122.84-65.34,195.27,.72,79.28,45.79,149.66,54.35,227.63,8.4,76.45-53.12,127.16-58.68,200.51"/><path class="cls-1" d="M1668.17,46.82c1.13,101.14,68.79,197.61,53.45,299.24-10.87,71.98-78.79,121.82-79.01,197.14-.24,80.56,47.21,152.26,53.6,231.87,5.94,74.02-43.41,134.77-47.29,207.46"/><path class="cls-1" d="M1607.41,40.21c4.34,61.24,34.39,116.9,57.72,172.62,16.96,40.51,38.34,88.38,29.15,133.3-15.07,73.73-93.16,120.92-94.65,199.13-1.47,77.59,43.67,147.74,51.54,224.05,8.09,78.4-31.23,150.31-33.2,227.95"/><path class="cls-1" d="M1546.9,33.7c8.12,63.75,47.48,119.48,77.77,174.65,22.41,40.81,54.03,92.11,41.07,140.49-19.78,73.83-106.56,118.36-109.26,198.45-2.61,77.59,43.81,148.46,50.5,224.96,7.03,80.46-20.13,159.19-20.15,239.52"/><path class="cls-1" d="M1488.79,28.17c10.58,65.17,57.48,120.35,92.95,173.98,26.75,40.46,69.03,95.13,53.92,146.67-22.17,75.67-118.89,117.23-122.46,200.21-3.3,76.79,42.85,147.53,49.2,223.28,7.02,83.73-10.05,167.93-8.75,251.77"/><path class="cls-1" d="M1435.23,24.51c10.74,66.53,64.49,121.92,103.3,174.25,28.94,39.01,78.17,94.75,63.15,147.41-22.47,78.8-128.28,117.93-132.01,204.02-3.26,75.51,41.17,145.06,48.02,219.42,7.99,86.72-2.39,175.65-1.03,262.66"/><path class="cls-1" d="M1388.4,23.71c9.21,67.28,66.68,123.11,106.54,174.69,30.18,39.05,79.96,93.93,64.95,147.7-22.24,79.69-131.48,117.09-134.66,204.29-2.76,75.6,41.16,144.78,47.95,219.24,7.94,87.19-.21,177.12,.72,264.64"/><path class="cls-1" d="M1349.18,29.39c10.78,66.08,62.47,119.9,100.91,172.02,28.99,39.32,74.59,93.47,58.72,146-23.28,77.06-126.79,114.95-130.55,200.1-3.43,77.64,44.53,148.38,50.67,224.96,6.83,85.24-10.41,170.21-7.69,255.5"/><path class="cls-1" d="M1315.6,41.14c9.48,63.43,54.66,115.03,89.48,166.67,25.52,37.85,62.4,88.36,47.57,136.6-23.01,74.83-120.45,114.41-123.77,197.1-3.21,79.96,48.48,152.12,55.48,230.85,7.34,82.5-26.01,160.42-24.51,242.56"/><path class="cls-1" d="M1285.58,56.7c6.25,57.43,41.17,104.42,69.78,152.9,22.16,37.54,49.38,82.82,38.44,128.06-18.3,75.67-113.3,113.98-115.73,195.88-2.49,84.13,54.69,158.59,61.83,241.55,6.83,79.34-45.38,144.41-46.9,222.53"/><path class="cls-1" d="M1257,73.82c2.69,50.81,27.13,93.4,48.84,138.22,18.2,37.57,37.35,81.52,26.35,124.03-18.48,71.38-104.63,110.73-105.84,188.71-1.34,86.24,58.35,162.39,68.37,246.98,9.59,81-65.33,129.33-70.8,206.83"/><path class="cls-1" d="M1227.78,90.25c-.23,81.66,61.59,156.29,44.68,238.72-14.66,71.44-96.82,110.85-97.27,187.51-.54,90.88,66.21,168.87,75.15,258.33,8.18,81.94-85.18,109.13-94.51,185.52"/><path class="cls-1" d="M1195.81,103.72c-2.89,74.56,32.23,147.15,18.85,221.69-12.54,69.82-89.66,109.71-89.55,184.21,.13,93.45,69.9,173.36,80.72,265.18,4.61,39.11-16.01,64.92-46.24,86.74-32.4,23.38-61.05,41.64-67.61,83.81"/><path class="cls-1" d="M1158.99,111.98c-2.16,69.29,17.17,146.19,2.37,214.36-14.38,66.22-84.75,107.59-84.32,178.92,.57,93.95,71.03,174.22,83.82,266.08,13.1,94.06-112.91,82.91-125.26,164.84"/><path class="cls-1" d="M1115.88,112.86c.07,36.93,.67,73.84,1.29,110.77,.56,33.24,5.08,70.41-2.34,102.99-14.79,64.96-82.04,108.21-82.11,178.08-.05,43.98,20.45,88.51,36.54,128.45,17.95,44.55,39.56,90.12,46.61,138.05,13.89,94.46-113.73,81.95-125.95,164.11"/><path class="cls-1" d="M1071.26,106.7c.07,38.89,.67,77.76,1.27,116.64,.52,34.28,4.44,71.13-1.83,104.94-12.02,64.88-73.3,110.02-73.82,178.45-.34,44.7,19.22,90.93,33.75,132.46,15.22,43.5,32.68,87.67,38.7,133.64,5.11,38.98-16.11,64.76-46.11,86.57-32.22,23.42-60.83,41.82-67.8,83.7"/><path class="cls-1" d="M1026.58,95.6c.08,43.96,.72,87.92,1.31,131.87,.47,35.77,4.25,73.69-1.3,109.12-9.69,61.84-58.82,109.27-59.27,173.64-.62,88.25,45.7,171.86,53.63,259.34,7.32,80.76-81.89,111.98-91.92,187.58"/><path class="cls-1" d="M981.86,81.53c.08,48.02,.71,96.04,1.26,144.06,.47,40.05,3.49,81.37-.51,121.27-5.85,58.41-40.61,108.06-40.93,167.82-.45,84.33,25.71,166.91,30.26,250.96,4.26,78.71-58.85,132.91-64.48,209.32"/><path class="cls-1" d="M937.14,66.47c.15,97.66,6.42,196.47,1.59,294.02-2.67,53.89-20.78,104.53-21.27,158.9-.72,79.72,5.31,159.28,5.18,238.98-.06,39.36-3.91,75.78-13.89,113.91-10.61,40.52-20.72,79.58-21.21,121.76"/><path class="cls-1" d="M892.42,52.41c.22,157.27,1.12,314.32-.63,471.48-.84,75.99-13.22,151.98-17.88,227.8-2.53,41.24-.53,82.6-3.31,123.94-3.05,45.47-6.3,90.62-4.63,136.22"/><path class="cls-1" d="M847.74,41.3c.15,111.33-3.21,224.05,2.96,335.22,2.78,50.17,12.18,100.59,11.55,150.88-.95,76.72-30.88,150.56-36.97,226.83-3.19,40.03,2.77,81.7,5.22,121.75,3.06,49.98,6.14,99.95,9.07,149.93"/><path class="cls-1" d="M803.12,35.14c.09,64.07,.73,128.14,1.24,192.21,.42,51.89-1.81,104.48,1.69,156.27,3.32,49.19,20.97,95.98,20.23,145.69-1.13,75.97-40.27,145.26-47.71,220.31-4.23,42.73,3.83,87.33,9.58,129.61,6.98,51.38,14.72,102.61,16.92,154.48"/><path class="cls-1" d="M757.39,35.74c-1,63.92,1.1,127.85,2.51,191.76,1.14,51.7-1.43,104.18,2.37,155.73,3.64,49.29,18.58,97.71,18.13,147.35-.68,75.18-39.03,144.28-46.51,218.53-9.54,94.74,26.8,189.32,28.23,284.03"/><path class="cls-1" d="M706.43,42.44c-1.27,62.66,4.33,125.19,8.44,187.66,3.24,49.21,3,98.36,5.41,147.53,2.58,52.64,3.48,106.42,3.28,159.09-.28,72.67-28.12,142.94-34.42,215.11-8.04,92.15,30.23,181.91,31.47,273.88"/><path class="cls-1" d="M651.41,53.37c-.32,107.3,29.9,212.1,27.93,319.64-1.07,58.57-19.32,114.49-19.86,173.41-.62,66.82-11.33,133.42-14.98,200.11-5.01,91.48,34.67,176.22,36.51,267.06"/><path class="cls-1" d="M594.1,66.69c2.88,101.14,54.39,199.1,44.7,300.7-6.34,66.43-46.55,123.01-47.6,190.79-1,64.9,7.44,129.44,7.8,194.31,.47,85.24,40.77,161.71,43.5,246.3"/><path class="cls-1" d="M536.25,80.57c3.51,52.87,23.02,101.71,39.94,151.39,14.3,41.97,30.4,87.94,21.75,132.74-13.96,72.33-75,130.21-76.23,205.84-1,61.48,27.1,118.88,31.78,179.7,2.95,38.36,6.99,72.51,19.81,109.14,14.36,41.04,28.89,80.09,30.94,124"/><path class="cls-1" d="M479.61,93.19c5.17,52.01,30.4,96.85,52.06,143.48,17.75,38.21,36.37,80.31,25.25,122.94-20.25,77.64-100.98,139.35-102.42,222.18-1.06,60.96,45.4,109.74,53.77,168.73,5.38,37.94,8.48,70.12,23.84,105.95,15.99,37.31,30.89,71.79,33.32,112.89"/><path class="cls-1" d="M425.93,102.72c5.7,49.79,33.54,89.29,58.5,131.36,21.83,36.81,44.09,77.89,31.18,121.56-13.12,44.36-44.26,82.5-69.99,120.06-22.26,32.51-52.3,73.22-52.77,114.57-.7,62.56,59.97,101.4,70.46,160.52,3.13,17.63,2.25,35.47,6.64,52.95,4.5,17.91,12.28,34.55,20.56,50.97,17.32,34.33,32.14,65,34.67,104.08"/><path class="cls-1" d="M376.98,107.33c4.83,50.16,35.1,86.68,62.65,126.83,24.1,35.13,46.72,75.27,33.73,118.99-13.76,46.32-48.84,85.88-76.69,124.25-24.08,33.19-56.01,73.8-56.58,116.95-.86,65.41,68.57,95.37,79.02,156.27,3.05,17.76,1.62,35.65,6.25,53.24,4.58,17.4,12.67,33.26,21.42,48.86,18.66,33.28,33.67,62.02,35.94,100.96"/><path class="cls-1" d="M334.39,106.1c5.94,49.25,33.74,86.41,59.74,127.09,22.74,35.57,45.12,76.05,32.03,119.17-13.86,45.68-46.54,85.19-73.19,123.91-22.92,33.31-53.8,74.33-54.93,116.67-1.74,65.26,68.04,98.29,78.37,159.3,2.99,17.67,2.07,35.45,6.56,52.98,4.44,17.31,11.96,33.34,20.1,49.16,17.24,33.5,31.26,63.2,34.21,101.43"/><path class="cls-1" d="M297.51,100.97c5.82,49.36,30.08,89.79,52.11,133.29,17.36,34.27,34.75,73.2,25,112.15-11.52,46.01-40.49,86.7-64.27,127.01-20.06,33.99-44.58,72.92-46.18,113.56-2.64,67.32,66.19,108.56,74.76,172.93,4.58,34.37,7.58,64.63,20.63,97.26,14.23,35.59,26.84,68.42,29.76,107.13"/><path class="cls-1" d="M264.49,93.23c3.78,46.75,20.14,88.78,35.61,132.58,13.11,37.11,25.79,76.95,18.54,116.55-14.99,81.86-81.55,151.38-83.63,235.99-1.73,70.31,61.45,120.42,69.57,188.47,4.18,34.99,5.86,68.02,15.06,102.35,9.63,35.95,18.02,70.56,19.93,107.92"/><path class="cls-1" d="M233.51,84.11c2.31,84.59,36.71,168.63,27.61,253.44-8.43,78.57-52.85,150.86-52.58,230.66,.25,72.79,53.26,130.32,62.72,200.97,4.81,35.92,3.22,72.73,7.76,108.88,4.78,38.05,9.26,75.7,9.87,114.11"/><path class="cls-1" d="M202.74,74.84c-2.28,85.93,2.08,171.88,.51,257.83-1.39,75.61-22.89,149.38-20.87,225.24,2.11,79.4,50.93,146.94,57.13,225.31,2.84,35.87-.27,72.86-.37,108.87-.11,38.47-.27,76.94-1,115.4"/><path class="cls-1" d="M170.37,66.67c-5.73,87.83-27.83,176.55-23.38,264.63,3.66,72.4,3.98,144.94,7.28,217.36,3.77,82.72,44.81,156.94,51.07,238.92,5.88,77.05-13.84,156.42-17.23,233.43"/><path class="cls-1" d="M134.56,60.81c-6.65,89.32-49.47,177.37-40.94,267.39,6.78,71.56,24.17,142,27.82,213.89,4.36,85.96,41.02,165.5,47.02,250.96,5.6,79.8-24.88,158.22-28.83,237.65"/></svg>